<mxfile host="app.diagrams.net" modified="2023-05-24T02:00:06.875Z" agent="Mozilla/5.0 (Macintosh; Intel Mac OS X 10_15_7) AppleWebKit/537.36 (KHTML, like Gecko) Chrome/113.0.0.0 Safari/537.36" etag="ajgtOo_H1vv-FUN60mSZ" version="21.1.8" type="github">
  <diagram name="第 1 页" id="9T5dYWxUWpJJESdSeumr">
    <mxGraphModel dx="1306" dy="708" grid="1" gridSize="10" guides="1" tooltips="1" connect="1" arrows="1" fold="1" page="1" pageScale="1" pageWidth="850" pageHeight="1100" math="0" shadow="0">
      <root>
        <mxCell id="0" />
        <mxCell id="1" parent="0" />
        <mxCell id="lJQH6e-Xa5GvViRyjmA2-4" value="Http API" style="rounded=1;whiteSpace=wrap;html=1;flipH=1;flipV=0;fontSize=17;fillColor=#f8cecc;strokeColor=#b85450;" vertex="1" parent="1">
          <mxGeometry x="200" y="220" width="520" height="60" as="geometry" />
        </mxCell>
        <mxCell id="lJQH6e-Xa5GvViRyjmA2-5" value="主" style="shape=cylinder3;whiteSpace=wrap;html=1;boundedLbl=1;backgroundOutline=1;size=15;flipH=1;fontSize=17;rounded=1;fillColor=#60a917;fontColor=#ffffff;strokeColor=#2D7600;flipV=0;" vertex="1" parent="1">
          <mxGeometry x="240" y="836" width="60" height="80" as="geometry" />
        </mxCell>
        <mxCell id="lJQH6e-Xa5GvViRyjmA2-6" value="从" style="shape=cylinder3;whiteSpace=wrap;html=1;boundedLbl=1;backgroundOutline=1;size=15;flipH=1;fontSize=17;rounded=1;fillColor=#6d8764;fontColor=#ffffff;strokeColor=#3A5431;flipV=0;" vertex="1" parent="1">
          <mxGeometry x="380" y="836" width="60" height="80" as="geometry" />
        </mxCell>
        <mxCell id="lJQH6e-Xa5GvViRyjmA2-7" value="" style="image;aspect=fixed;html=1;points=[];align=center;fontSize=17;image=img/lib/mscae/Cache_Redis_Product.svg;flipH=1;rounded=1;flipV=0;" vertex="1" parent="1">
          <mxGeometry x="510" y="855" width="50" height="42" as="geometry" />
        </mxCell>
        <mxCell id="lJQH6e-Xa5GvViRyjmA2-24" value="" style="edgeStyle=orthogonalEdgeStyle;rounded=0;orthogonalLoop=1;jettySize=auto;html=1;" edge="1" parent="1" source="lJQH6e-Xa5GvViRyjmA2-9" target="lJQH6e-Xa5GvViRyjmA2-4">
          <mxGeometry relative="1" as="geometry" />
        </mxCell>
        <mxCell id="lJQH6e-Xa5GvViRyjmA2-9" value="&lt;font style=&quot;font-size: 17px;&quot;&gt;ALB&lt;/font&gt;" style="rounded=1;whiteSpace=wrap;html=1;flipH=1;flipV=0;fillColor=#dae8fc;strokeColor=#6c8ebf;" vertex="1" parent="1">
          <mxGeometry x="200" y="100" width="520" height="60" as="geometry" />
        </mxCell>
        <mxCell id="lJQH6e-Xa5GvViRyjmA2-13" value="供应链（课程/学生购课数据/分班/植课）" style="rounded=1;whiteSpace=wrap;html=1;flipV=0;flipH=1;fontSize=14;fillColor=#e51400;fontColor=#ffffff;strokeColor=#B20000;" vertex="1" parent="1">
          <mxGeometry x="834" y="306" width="240" height="60" as="geometry" />
        </mxCell>
        <mxCell id="lJQH6e-Xa5GvViRyjmA2-14" value="三方支付（微信/支付宝）" style="rounded=1;whiteSpace=wrap;html=1;flipV=0;flipH=1;fontSize=14;fillColor=#e51400;fontColor=#ffffff;strokeColor=#B20000;" vertex="1" parent="1">
          <mxGeometry x="834" y="396" width="240" height="60" as="geometry" />
        </mxCell>
        <mxCell id="lJQH6e-Xa5GvViRyjmA2-15" value="万店通（物流）" style="rounded=1;whiteSpace=wrap;html=1;flipV=0;flipH=1;fontSize=14;fillColor=#e51400;fontColor=#ffffff;strokeColor=#B20000;" vertex="1" parent="1">
          <mxGeometry x="834" y="576" width="240" height="60" as="geometry" />
        </mxCell>
        <mxCell id="lJQH6e-Xa5GvViRyjmA2-17" value="核心功能模块" style="text;html=1;strokeColor=none;fillColor=none;align=center;verticalAlign=middle;whiteSpace=wrap;rounded=1;fontSize=18;" vertex="1" parent="1">
          <mxGeometry x="40" y="430" width="80" height="30" as="geometry" />
        </mxCell>
        <mxCell id="lJQH6e-Xa5GvViRyjmA2-19" value="网关/业务SLS、告警" style="ellipse;shape=cloud;whiteSpace=wrap;html=1;fontSize=14;rounded=1;fillColor=#e1d5e7;strokeColor=#9673a6;flipH=1;" vertex="1" parent="1">
          <mxGeometry x="844" y="130" width="220" height="140" as="geometry" />
        </mxCell>
        <mxCell id="lJQH6e-Xa5GvViRyjmA2-21" value="比翼（SMS）" style="rounded=1;whiteSpace=wrap;html=1;flipV=0;flipH=1;fontSize=14;fillColor=#e51400;fontColor=#ffffff;strokeColor=#B20000;" vertex="1" parent="1">
          <mxGeometry x="834" y="666" width="240" height="60" as="geometry" />
        </mxCell>
        <mxCell id="lJQH6e-Xa5GvViRyjmA2-26" value="" style="verticalLabelPosition=bottom;verticalAlign=top;shape=mxgraph.basic.diag_round_rect;dx=6;whiteSpace=wrap;labelBackgroundColor=none;fillStyle=hatch;flipH=0;flipV=0;dashed=1;strokeWidth=2;" vertex="1" parent="1">
          <mxGeometry x="175" y="330" width="570" height="380" as="geometry" />
        </mxCell>
        <mxCell id="lJQH6e-Xa5GvViRyjmA2-22" value="青鸟（班主任信息）" style="rounded=1;whiteSpace=wrap;html=1;flipV=0;flipH=1;fontSize=14;fillColor=#e51400;fontColor=#ffffff;strokeColor=#B20000;" vertex="1" parent="1">
          <mxGeometry x="834" y="486" width="240" height="60" as="geometry" />
        </mxCell>
        <mxCell id="lJQH6e-Xa5GvViRyjmA2-1" value="课程" style="rounded=1;html=1;flipH=0;flipV=0;fontSize=17;shadow=1;glass=1;fillColor=#fa6800;strokeColor=#C73500;fontColor=#000000;labelBorderColor=none;" vertex="1" parent="1">
          <mxGeometry x="210" y="360" width="120" height="60" as="geometry" />
        </mxCell>
        <mxCell id="lJQH6e-Xa5GvViRyjmA2-2" value="限购" style="rounded=1;whiteSpace=wrap;html=1;flipH=0;flipV=0;fontSize=17;shadow=1;glass=1;fillColor=#fa6800;fontColor=#000000;strokeColor=#C73500;labelBorderColor=none;" vertex="1" parent="1">
          <mxGeometry x="400" y="360" width="120" height="60" as="geometry" />
        </mxCell>
        <mxCell id="lJQH6e-Xa5GvViRyjmA2-3" value="订单" style="rounded=1;whiteSpace=wrap;html=1;flipH=0;flipV=0;fontSize=17;shadow=1;glass=1;fillColor=#fa6800;fontColor=#000000;strokeColor=#C73500;labelBorderColor=none;" vertex="1" parent="1">
          <mxGeometry x="609" y="360" width="120" height="60" as="geometry" />
        </mxCell>
        <mxCell id="lJQH6e-Xa5GvViRyjmA2-10" value="支付" style="rounded=1;whiteSpace=wrap;html=1;flipH=0;flipV=0;fontSize=17;shadow=1;glass=1;fillColor=#fa6800;fontColor=#000000;strokeColor=#C73500;labelBorderColor=none;" vertex="1" parent="1">
          <mxGeometry x="209" y="510" width="120" height="60" as="geometry" />
        </mxCell>
        <mxCell id="lJQH6e-Xa5GvViRyjmA2-11" value="分班" style="rounded=1;whiteSpace=wrap;html=1;flipH=0;flipV=0;fontSize=17;shadow=1;glass=1;fillColor=#fa6800;fontColor=#000000;strokeColor=#C73500;labelBorderColor=none;" vertex="1" parent="1">
          <mxGeometry x="400" y="510" width="120" height="60" as="geometry" />
        </mxCell>
        <mxCell id="lJQH6e-Xa5GvViRyjmA2-12" value="物流" style="rounded=1;whiteSpace=wrap;html=1;flipH=0;flipV=0;fontSize=17;shadow=1;glass=1;fillColor=#fa6800;fontColor=#000000;strokeColor=#C73500;labelBorderColor=none;" vertex="1" parent="1">
          <mxGeometry x="609" y="510" width="120" height="60" as="geometry" />
        </mxCell>
        <mxCell id="lJQH6e-Xa5GvViRyjmA2-16" value="SMS" style="rounded=1;whiteSpace=wrap;html=1;fontSize=17;shadow=1;glass=1;fillColor=#fa6800;fontColor=#000000;strokeColor=#C73500;labelBorderColor=none;flipH=0;flipV=0;" vertex="1" parent="1">
          <mxGeometry x="209" y="630" width="120" height="60" as="geometry" />
        </mxCell>
        <mxCell id="lJQH6e-Xa5GvViRyjmA2-36" value="" style="endArrow=classic;html=1;rounded=0;exitX=0.5;exitY=1;exitDx=0;exitDy=0;" edge="1" parent="1" source="lJQH6e-Xa5GvViRyjmA2-4">
          <mxGeometry width="50" height="50" relative="1" as="geometry">
            <mxPoint x="459.5" y="290" as="sourcePoint" />
            <mxPoint x="459.5" y="330" as="targetPoint" />
          </mxGeometry>
        </mxCell>
        <mxCell id="lJQH6e-Xa5GvViRyjmA2-37" value="" style="endArrow=classic;html=1;rounded=0;exitX=0.5;exitY=1;exitDx=0;exitDy=0;exitPerimeter=0;" edge="1" parent="1" source="lJQH6e-Xa5GvViRyjmA2-26">
          <mxGeometry width="50" height="50" relative="1" as="geometry">
            <mxPoint x="480" y="780" as="sourcePoint" />
            <mxPoint x="460" y="820" as="targetPoint" />
          </mxGeometry>
        </mxCell>
        <mxCell id="lJQH6e-Xa5GvViRyjmA2-40" value="" style="shape=flexArrow;endArrow=classic;html=1;rounded=0;" edge="1" parent="1">
          <mxGeometry width="50" height="50" relative="1" as="geometry">
            <mxPoint x="745" y="530" as="sourcePoint" />
            <mxPoint x="830" y="460" as="targetPoint" />
          </mxGeometry>
        </mxCell>
        <mxCell id="lJQH6e-Xa5GvViRyjmA2-41" value="" style="shape=flexArrow;endArrow=classic;html=1;rounded=0;" edge="1" parent="1">
          <mxGeometry width="50" height="50" relative="1" as="geometry">
            <mxPoint x="745" y="540" as="sourcePoint" />
            <mxPoint x="825" y="590" as="targetPoint" />
          </mxGeometry>
        </mxCell>
        <mxCell id="lJQH6e-Xa5GvViRyjmA2-42" value="MQ" style="ellipse;whiteSpace=wrap;html=1;aspect=fixed;fillColor=#f0a30a;fontColor=#000000;strokeColor=#BD7000;" vertex="1" parent="1">
          <mxGeometry x="634" y="846" width="70" height="70" as="geometry" />
        </mxCell>
      </root>
    </mxGraphModel>
  </diagram>
</mxfile>
